<svg xmlns="http://www.w3.org/2000/svg" viewBox="0 0 96 96">
	<path d="M 15 0 A 15 15 0 0 0 0 15 L 0 81 A 15 15 0 0 0 15 96 L 81 96 A 15 15 0 0 0 96 81 L 96 15 A 15 15 0 0 0 81 0 Z" fill="#A0F" />
	<path d="M 36 84 H 20 Q 16.7 84 14.35 81.65 T 12 76 V 48 Q 12 40.5 14.85 33.95 T 22.55 22.55 Q 27.4 17.7 33.95 14.85 T 48 12 Q 55.5 12 62.05 14.85 T 73.45 22.55 Q 78.3 27.4 81.15 33.95 T 84 48 V 76 Q 84 79.3 81.65 81.65 T 76 84 H 60 V 52 H 76 V 48 Q 76 36.3 67.85 28.15 T 48 20 Q 36.3 20 28.15 28.15 T 20 48 V 52 H 36 V 84 Z M 28 60 H 20 V 76 H 28 V 60 Z M 68 60 V 76 H 76 V 60 H 68 Z M 28 60 H 20 H 28 Z M 68 60 H 76 H 68 Z" fill="white" />
</svg>