<svg xmlns="http://www.w3.org/2000/svg" viewBox="0 0 96 96">
	<path d="M 15 0 A 15 15 0 0 0 0 15 L 0 81 A 15 15 0 0 0 15 96 L 81 96 A 15 15 0 0 0 96 81 L 96 15 A 15 15 0 0 0 81 0 Z" fill="#1A9" />
	<path d="M 24 64 H 56 V 56 H 24 V 64 Z M 64 64 H 72 V 56 H 64 V 64 Z M 24 48 H 32 V 40 H 24 V 48 Z M 40 48 H 72 V 40 H 40 V 48 Z M 16 80 Q 12.7 80 10.35 77.65 T 8 72 V 24 Q 8 20.7 10.35 18.35 T 16 16 H 80 Q 83.3 16 85.65 18.35 T 88 24 V 72 Q 88 75.3 85.65 77.65 T 80 80 H 16 Z M 16 72 H 80 V 24 H 16 V 72 Z M 16 72 V 24 V 72 Z" fill="white" />
</svg>