<svg xmlns="http://www.w3.org/2000/svg" viewBox="0 0 96 96">
	<path d="M 15 0 A 15 15 0 0 0 0 15 L 0 81 A 15 15 0 0 0 15 96 L 81 96 A 15 15 0 0 0 96 81 L 96 15 A 15 15 0 0 0 81 0 Z" fill="#F40" />
	<path d="M 20 64 H 60 L 46.2 46 L 37 58 L 30.8 50 L 20 64 Z M 16 80 Q 12.7 80 10.35 77.65 T 8 72 V 24 Q 8 20.7 10.35 18.35 T 16 16 H 64 Q 67.3 16 69.65 18.35 T 72 24 V 42 L 88 26 V 70 L 72 54 V 72 Q 72 75.3 69.65 77.65 T 64 80 H 16 Z M 16 72 H 64 V 24 H 16 V 72 Z M 16 72 V 24 V 72 Z" fill="white" />
</svg>